<svg xmlns="http://www.w3.org/2000/svg" xmlns:svg="http://www.w3.org/2000/svg" id="svg20" width="64" height="64" version="1.1" viewBox="0 0 64 64" style="fill:none"><metadata id="metadata24"/><path id="path2" d="m 37.41219,62.936701 c -1.634985,2.05896 -4.950068,0.93085 -4.989463,-1.69817 L 31.846665,22.786035 h 25.855406 c 4.683108,0 7.294967,5.409033 4.382927,9.07673 z" style="fill:url(#paint0_linear);stroke-width:.57177335"/><path id="path4" d="m 37.41219,62.936701 c -1.634985,2.05896 -4.950068,0.93085 -4.989463,-1.69817 L 31.846665,22.786035 h 25.855406 c 4.683108,0 7.294967,5.409033 4.382927,9.07673 z" style="fill:url(#paint1_linear);fill-opacity:.2;stroke-width:.57177335"/><path id="path6" d="m 26.89694,1.0634102 c 1.634986,-2.05918508 4.950125,-0.93090008 4.989521,1.698149 L 32.138899,41.214003 H 6.607076 c -4.6832501,0 -7.29518376,-5.409032 -4.3830007,-9.07673 z" style="fill:#3ecf8e;stroke-width:.57177335"/><defs id="defs18"><linearGradient id="paint0_linear" x1="53.974" x2="94.163" y1="54.974" y2="71.829" gradientTransform="matrix(0.57177306,0,0,0.57177334,0.98590077,-0.12074988)" gradientUnits="userSpaceOnUse"><stop id="stop8" stop-color="#249361"/><stop id="stop10" offset="1" stop-color="#3ECF8E"/></linearGradient><linearGradient id="paint1_linear" x1="36.156" x2="54.484" y1="30.578" y2="65.081" gradientTransform="matrix(0.57177306,0,0,0.57177334,0.98590077,-0.12074988)" gradientUnits="userSpaceOnUse"><stop id="stop13"/><stop id="stop15" offset="1" stop-opacity="0"/></linearGradient></defs></svg>